<svg width="174" height="29" viewBox="0 0 174 29" fill="none" xmlns="http://www.w3.org/2000/svg">
<path d="M147.158 28.9999V25.0071L165.427 4.6652H147.678V0H173.442V3.99274L155.173 24.3347H173.962V28.9999H147.158Z" fill="#0069A8"/>
<path d="M111.281 27.9912L122.367 0H132.256L143.29 27.9912L142.509 28.9999H137.148L134.702 22.6115H119.868L117.37 28.9999H112.113L111.281 27.9912ZM121.638 17.9463H132.984L127.78 4.6652H126.791L121.638 17.9463Z" fill="#0069A8"/>
<path d="M59.5291 22.7619V7.99517C59.5291 3.83628 64.128 1.75684 73.3258 1.75684H93.7134C102.911 1.75684 107.51 3.83628 107.51 7.99517V22.7619C107.51 26.9207 102.911 29.0002 93.7134 29.0002H73.3258C64.128 29.0002 59.5291 26.9207 59.5291 22.7619ZM68.4047 23.1567C68.4047 24.6307 70.0744 25.3677 73.4137 25.3677H93.6256C96.9649 25.3677 98.6346 24.6307 98.6346 23.1567V7.60034C98.6346 6.1263 96.9649 5.38928 93.6256 5.38928H73.4137C70.0744 5.38928 68.4047 6.1263 68.4047 7.60034V23.1567Z" fill="#0069A8"/>
<path d="M33.2656 28.9999V0H39.6154V24.3347H55.8542V28.9999H33.2656Z" fill="#0069A8"/>
<path d="M0 22.1492V6.8507C0 2.28357 2.82791 0 8.48372 0H22.6406L25.7114 1.93333V4.6652H8.63986C7.11314 4.6652 6.34978 5.26761 6.34978 6.47244V22.5274C6.34978 23.7323 7.11314 24.3347 8.63986 24.3347H25.7114V27.0666L22.6406 28.9999H8.48372C2.82791 28.9999 0 26.7163 0 22.1492Z" fill="#0069A8"/>
</svg>
