<svg width="1380" height="231" viewBox="0 0 1380 231" fill="none" xmlns="http://www.w3.org/2000/svg">
<path d="M584.193 107.877L575.99 138.353H572.671L580.874 107.877H584.193ZM608.79 117.348H604.912C604.763 116.52 604.485 115.791 604.079 115.161C603.673 114.531 603.176 113.997 602.588 113.557C601.999 113.118 601.341 112.787 600.612 112.563C599.891 112.339 599.124 112.228 598.312 112.228C596.846 112.228 595.532 112.596 594.372 113.334C593.22 114.071 592.309 115.153 591.638 116.578C590.975 118.003 590.643 119.743 590.643 121.798C590.643 123.869 590.975 125.618 591.638 127.043C592.309 128.468 593.225 129.545 594.385 130.274C595.545 131.004 596.85 131.368 598.3 131.368C599.103 131.368 599.866 131.26 600.587 131.045C601.316 130.821 601.975 130.494 602.563 130.063C603.151 129.632 603.648 129.106 604.054 128.485C604.469 127.855 604.754 127.134 604.912 126.322L608.79 126.334C608.583 127.586 608.181 128.737 607.584 129.79C606.996 130.834 606.238 131.737 605.31 132.499C604.39 133.253 603.338 133.837 602.153 134.252C600.968 134.666 599.675 134.873 598.275 134.873C596.071 134.873 594.107 134.351 592.384 133.307C590.66 132.255 589.301 130.751 588.307 128.795C587.321 126.84 586.828 124.507 586.828 121.798C586.828 119.08 587.325 116.748 588.319 114.8C589.314 112.845 590.672 111.345 592.396 110.301C594.119 109.249 596.079 108.723 598.275 108.723C599.625 108.723 600.885 108.917 602.053 109.307C603.23 109.688 604.286 110.251 605.223 110.997C606.159 111.735 606.934 112.638 607.547 113.707C608.16 114.767 608.574 115.981 608.79 117.348ZM615.365 134.525H611.288L620.448 109.071H624.885L634.045 134.525H629.969L622.772 113.694H622.574L615.365 134.525ZM616.048 124.557H629.273V127.789H616.048V124.557ZM633.458 112.377V109.071H653.158V112.377H645.216V134.525H641.388V112.377H633.458ZM678.529 121.798C678.529 124.516 678.032 126.852 677.037 128.808C676.043 130.755 674.68 132.255 672.948 133.307C671.225 134.351 669.265 134.873 667.069 134.873C664.865 134.873 662.897 134.351 661.165 133.307C659.442 132.255 658.083 130.751 657.089 128.795C656.094 126.84 655.597 124.507 655.597 121.798C655.597 119.08 656.094 116.748 657.089 114.8C658.083 112.845 659.442 111.345 661.165 110.301C662.897 109.249 664.865 108.723 667.069 108.723C669.265 108.723 671.225 109.249 672.948 110.301C674.68 111.345 676.043 112.845 677.037 114.8C678.032 116.748 678.529 119.08 678.529 121.798ZM674.725 121.798C674.725 119.726 674.39 117.982 673.719 116.565C673.056 115.14 672.144 114.063 670.984 113.334C669.833 112.596 668.528 112.228 667.069 112.228C665.603 112.228 664.293 112.596 663.142 113.334C661.99 114.063 661.078 115.14 660.407 116.565C659.744 117.982 659.413 119.726 659.413 121.798C659.413 123.869 659.744 125.618 660.407 127.043C661.078 128.46 661.99 129.537 663.142 130.274C664.293 131.004 665.603 131.368 667.069 131.368C668.528 131.368 669.833 131.004 670.984 130.274C672.144 129.537 673.056 128.46 673.719 127.043C674.39 125.618 674.725 123.869 674.725 121.798ZM700.544 117.112C700.303 116.358 699.98 115.683 699.574 115.086C699.176 114.481 698.7 113.968 698.145 113.545C697.59 113.114 696.956 112.787 696.243 112.563C695.539 112.339 694.764 112.228 693.919 112.228C692.485 112.228 691.193 112.596 690.041 113.334C688.889 114.071 687.978 115.153 687.307 116.578C686.644 117.995 686.312 119.731 686.312 121.785C686.312 123.849 686.648 125.593 687.319 127.018C687.99 128.443 688.91 129.525 690.078 130.262C691.247 130.999 692.577 131.368 694.068 131.368C695.452 131.368 696.657 131.086 697.685 130.523C698.721 129.96 699.52 129.164 700.084 128.137C700.655 127.101 700.941 125.883 700.941 124.483L701.936 124.669H694.652V121.5H704.658V124.396C704.658 126.533 704.202 128.389 703.29 129.964C702.387 131.53 701.136 132.74 699.537 133.593C697.946 134.446 696.123 134.873 694.068 134.873C691.765 134.873 689.743 134.343 688.003 133.282C686.271 132.222 684.92 130.718 683.951 128.771C682.981 126.815 682.497 124.495 682.497 121.81C682.497 119.78 682.778 117.957 683.342 116.342C683.905 114.726 684.697 113.354 685.716 112.228C686.743 111.092 687.949 110.226 689.333 109.63C690.725 109.025 692.245 108.723 693.894 108.723C695.27 108.723 696.55 108.926 697.735 109.332C698.928 109.738 699.988 110.313 700.916 111.059C701.853 111.805 702.628 112.692 703.241 113.719C703.854 114.738 704.268 115.869 704.484 117.112H700.544ZM709.533 134.525V109.071H718.606C720.578 109.071 722.215 109.41 723.515 110.09C724.825 110.769 725.802 111.71 726.449 112.911C727.095 114.104 727.418 115.484 727.418 117.05C727.418 118.608 727.091 119.979 726.436 121.164C725.79 122.341 724.812 123.256 723.503 123.911C722.202 124.565 720.566 124.893 718.594 124.893H711.72V121.587H718.246C719.488 121.587 720.499 121.408 721.278 121.052C722.065 120.696 722.641 120.178 723.006 119.499C723.37 118.819 723.553 118.003 723.553 117.05C723.553 116.089 723.366 115.256 722.993 114.552C722.629 113.847 722.053 113.309 721.266 112.936C720.487 112.555 719.464 112.364 718.196 112.364H713.373V134.525H709.533ZM722.099 123.041L728.388 134.525H724.013L717.848 123.041H722.099ZM729.205 109.071H733.567L740.217 120.642H740.49L747.14 109.071H751.502L742.268 124.532V134.525H738.44V124.532L729.205 109.071Z" fill="#151D28"/>
<path d="M1375.37 0.5V31.4814L1230.58 192.708L1229.83 193.542H1379.5V229.551H1167.87V198.568L1312.66 37.3418L1313.41 36.5078H1172V0.5H1375.37Z" fill="#151D28" stroke="#151D28"/>
<path d="M1048.81 0.5L1136.11 221.967L1130.24 229.551H1088.31L1069.02 179.193L1068.9 178.873H950.546L950.421 179.19L930.727 229.551H889.603L883.335 221.957L971.045 0.5H1048.81ZM1005.33 36.8271L964.459 142.184L964.195 142.864H1055.67L1055.4 142.182L1014.11 36.8252L1013.99 36.5078H1005.46L1005.33 36.8271Z" fill="#151D28" stroke="#151D28"/>
<path d="M581.676 14.4292H743.407C779.867 14.4292 807.143 18.5528 825.286 26.7563C834.351 30.8554 841.114 35.9637 845.611 42.063C850.103 48.1564 852.353 55.2673 852.353 63.4165V180.558C852.353 188.707 850.103 195.818 845.611 201.912C841.114 208.011 834.351 213.119 825.286 217.218C807.143 225.422 779.867 229.545 743.407 229.545H581.676C545.216 229.545 517.94 225.422 499.797 217.218C490.732 213.119 483.97 208.011 479.473 201.912C474.981 195.818 472.73 188.707 472.73 180.558V63.4165C472.73 55.2672 474.981 48.1565 479.473 42.063C483.97 35.9638 490.732 30.8554 499.797 26.7563C517.94 18.5528 545.216 14.4292 581.676 14.4292ZM582.374 42.2446C569.107 42.2446 559.09 43.7066 552.371 46.6724C549.006 48.1577 546.444 50.0306 544.723 52.3091C542.998 54.5941 542.138 57.26 542.138 60.2847V183.69C542.138 186.715 542.998 189.381 544.723 191.666C546.444 193.944 549.006 195.817 552.371 197.302C559.09 200.268 569.107 201.73 582.374 201.73H742.709C755.976 201.73 765.994 200.268 772.713 197.302C776.078 195.817 778.64 193.944 780.361 191.666C782.086 189.381 782.945 186.715 782.945 183.69V60.2847C782.945 57.26 782.086 54.5941 780.361 52.3091C778.64 50.0306 776.078 48.1578 772.713 46.6724C765.994 43.7065 755.976 42.2446 742.709 42.2446H582.374Z" fill="#2D9CDB" stroke="#2D9CDB"/>
<path d="M313.755 0.5V193.542H442.573V229.551H264.384V0.5H313.755Z" fill="#151D28" stroke="#151D28"/>
<path d="M67.2998 0.5H179.458L203.463 15.6123V36.5078H68.5381C62.4303 36.5078 57.7573 37.7113 54.6035 40.2002C51.4272 42.7069 49.8711 46.4532 49.8711 51.3447V178.706C49.8712 183.597 51.4272 187.344 54.6035 189.851C57.7573 192.339 62.4304 193.542 68.5381 193.542H203.463V214.438L179.457 229.551H67.2998C44.9209 229.551 28.2287 225.031 17.1387 216.075C6.06914 207.136 0.5 193.711 0.5 175.705V54.3457C0.5 36.3395 6.06928 22.9145 17.1387 13.9756C27.8821 5.3001 43.8826 0.78729 65.2178 0.513672L67.2998 0.5Z" fill="#151D28" stroke="#151D28"/>
</svg>
