<svg width="1380" height="231" viewBox="0 0 1380 231" fill="none" xmlns="http://www.w3.org/2000/svg">
<path d="M611.193 101.352L602.99 131.828H599.671L607.874 101.352H611.193ZM628.531 109.232C628.399 108.056 627.852 107.144 626.891 106.498C625.929 105.843 624.72 105.516 623.261 105.516C622.217 105.516 621.314 105.682 620.552 106.013C619.79 106.336 619.197 106.784 618.775 107.355C618.36 107.919 618.153 108.561 618.153 109.282C618.153 109.887 618.294 110.409 618.576 110.848C618.866 111.287 619.243 111.656 619.707 111.954C620.179 112.244 620.684 112.489 621.223 112.688C621.762 112.878 622.279 113.036 622.777 113.16L625.262 113.806C626.074 114.005 626.907 114.274 627.761 114.614C628.614 114.954 629.405 115.401 630.135 115.956C630.864 116.511 631.452 117.199 631.9 118.02C632.355 118.84 632.583 119.822 632.583 120.965C632.583 122.407 632.21 123.687 631.464 124.806C630.727 125.924 629.654 126.807 628.245 127.453C626.845 128.099 625.151 128.423 623.162 128.423C621.256 128.423 619.607 128.12 618.215 127.515C616.823 126.91 615.734 126.053 614.946 124.942C614.159 123.824 613.724 122.498 613.641 120.965H617.494C617.569 121.885 617.867 122.651 618.389 123.265C618.92 123.869 619.595 124.321 620.415 124.619C621.244 124.909 622.151 125.054 623.137 125.054C624.223 125.054 625.188 124.884 626.033 124.545C626.886 124.197 627.558 123.716 628.047 123.103C628.535 122.482 628.78 121.757 628.78 120.928C628.78 120.174 628.564 119.557 628.134 119.076C627.711 118.595 627.135 118.198 626.406 117.883C625.685 117.568 624.869 117.29 623.957 117.05L620.95 116.23C618.911 115.675 617.295 114.858 616.102 113.781C614.917 112.704 614.325 111.279 614.325 109.506C614.325 108.039 614.723 106.759 615.518 105.665C616.314 104.571 617.391 103.722 618.75 103.117C620.109 102.504 621.641 102.197 623.348 102.197C625.072 102.197 626.592 102.5 627.91 103.105C629.236 103.71 630.28 104.542 631.042 105.603C631.804 106.655 632.202 107.865 632.235 109.232H628.531ZM635.917 105.852V102.545H655.617V105.852H647.675V128H643.847V105.852H635.917ZM680.988 115.273C680.988 117.991 680.491 120.327 679.496 122.283C678.502 124.23 677.139 125.73 675.407 126.782C673.684 127.826 671.724 128.348 669.528 128.348C667.324 128.348 665.356 127.826 663.624 126.782C661.901 125.73 660.542 124.226 659.548 122.27C658.553 120.315 658.056 117.982 658.056 115.273C658.056 112.555 658.553 110.222 659.548 108.275C660.542 106.32 661.901 104.82 663.624 103.776C665.356 102.724 667.324 102.197 669.528 102.197C671.724 102.197 673.684 102.724 675.407 103.776C677.139 104.82 678.502 106.32 679.496 108.275C680.491 110.222 680.988 112.555 680.988 115.273ZM677.184 115.273C677.184 113.201 676.849 111.457 676.178 110.04C675.515 108.615 674.603 107.538 673.443 106.809C672.292 106.071 670.987 105.702 669.528 105.702C668.062 105.702 666.752 106.071 665.601 106.809C664.449 107.538 663.537 108.615 662.866 110.04C662.203 111.457 661.872 113.201 661.872 115.273C661.872 117.344 662.203 119.093 662.866 120.518C663.537 121.935 664.449 123.012 665.601 123.749C666.752 124.478 668.062 124.843 669.528 124.843C670.987 124.843 672.292 124.478 673.443 123.749C674.603 123.012 675.515 121.935 676.178 120.518C676.849 119.093 677.184 117.344 677.184 115.273ZM685.776 128V102.545H694.849C696.821 102.545 698.458 102.885 699.759 103.565C701.068 104.244 702.046 105.185 702.692 106.386C703.338 107.579 703.661 108.959 703.661 110.525C703.661 112.083 703.334 113.454 702.679 114.639C702.033 115.815 701.055 116.731 699.746 117.386C698.445 118.04 696.809 118.368 694.837 118.368H687.964V115.061H694.489C695.732 115.061 696.743 114.883 697.521 114.527C698.309 114.171 698.884 113.653 699.249 112.973C699.614 112.294 699.796 111.478 699.796 110.525C699.796 109.564 699.609 108.731 699.237 108.027C698.872 107.322 698.296 106.784 697.509 106.411C696.73 106.03 695.707 105.839 694.439 105.839H689.617V128H685.776ZM698.342 116.516L704.631 128H700.256L694.091 116.516H698.342ZM708.335 128V102.545H724.293V105.852H712.175V113.607H723.461V116.901H712.175V124.694H724.443V128H708.335Z" fill="#151D28"/>
<path d="M1375.37 0.5V31.4814L1230.58 192.708L1229.83 193.542H1379.5V229.551H1167.87V198.568L1312.66 37.3418L1313.41 36.5078H1172V0.5H1375.37Z" fill="#151D28" stroke="#151D28"/>
<path d="M1048.81 0.5L1136.11 221.967L1130.24 229.551H1088.31L1069.02 179.193L1068.9 178.873H950.546L950.421 179.19L930.727 229.551H889.603L883.335 221.957L971.045 0.5H1048.81ZM1005.33 36.8271L964.459 142.184L964.195 142.864H1055.67L1055.4 142.182L1014.11 36.8252L1013.99 36.5078H1005.46L1005.33 36.8271Z" fill="#151D28" stroke="#151D28"/>
<path d="M581.676 14.4292H743.407C779.867 14.4292 807.143 18.5528 825.286 26.7563C834.351 30.8554 841.114 35.9637 845.611 42.063C850.103 48.1564 852.353 55.2673 852.353 63.4165V180.558C852.353 188.707 850.103 195.818 845.611 201.912C841.114 208.011 834.351 213.119 825.286 217.218C807.143 225.422 779.867 229.545 743.407 229.545H581.676C545.216 229.545 517.94 225.422 499.797 217.218C490.732 213.119 483.97 208.011 479.473 201.912C474.981 195.818 472.73 188.707 472.73 180.558V63.4165L472.737 62.6558C472.873 54.8239 475.121 47.9661 479.473 42.063C483.97 35.9638 490.732 30.8554 499.797 26.7563C517.94 18.5528 545.216 14.4292 581.676 14.4292ZM582.374 42.2446C569.107 42.2446 559.09 43.7066 552.371 46.6724C549.006 48.1577 546.444 50.0306 544.723 52.3091C542.998 54.5941 542.138 57.26 542.138 60.2847V183.69C542.138 186.715 542.998 189.381 544.723 191.666C546.444 193.944 549.006 195.817 552.371 197.302C559.09 200.268 569.107 201.73 582.374 201.73H742.709C755.976 201.73 765.994 200.268 772.713 197.302C776.078 195.817 778.64 193.944 780.361 191.666C782.086 189.381 782.945 186.715 782.945 183.69V60.2847C782.945 57.26 782.086 54.5941 780.361 52.3091C778.64 50.0306 776.078 48.1578 772.713 46.6724C765.994 43.7065 755.976 42.2446 742.709 42.2446H582.374Z" fill="#2D9CDB" stroke="#2D9CDB"/>
<path d="M313.755 0.5V193.542H442.573V229.551H264.384V0.5H313.755Z" fill="#151D28" stroke="#151D28"/>
<path d="M67.2998 0.5H179.458L203.463 15.6123V36.5078H68.5381C62.4303 36.5078 57.7573 37.7113 54.6035 40.2002C51.4272 42.7069 49.8711 46.4532 49.8711 51.3447V178.706C49.8712 183.597 51.4272 187.344 54.6035 189.851C57.7573 192.339 62.4304 193.542 68.5381 193.542H203.463V214.438L179.457 229.551H67.2998C44.9209 229.551 28.2287 225.031 17.1387 216.075C6.06914 207.136 0.5 193.711 0.5 175.705V54.3457C0.5 36.3395 6.06927 22.9145 17.1387 13.9756C28.2287 5.02021 44.9209 0.5 67.2998 0.5Z" fill="#151D28" stroke="#151D28"/>
</svg>
